<svg version="1.1" xmlns="http://www.w3.org/2000/svg" xmlns:xlink="http://www.w3.org/1999/xlink"
	 width="100%" height="100%" viewBox="90.278 90.278 336.805 336.805">
<path fill="#aeb7be" d="M317.494,346.957C293.799,364.575,264.436,375,232.639,375c-78.624,0-142.361-63.737-142.361-142.361
	c0-78.624,63.737-142.361,142.361-142.361C311.263,90.278,375,154.015,375,232.639c0,31.797-10.425,61.16-28.043,84.855
	l74.024,74.024c8.136,8.136,8.136,21.327,0,29.463s-21.327,8.136-29.463,0L317.494,346.957z M232.639,333.334
	c55.612,0,100.694-45.083,100.694-100.695c0-55.612-45.082-100.694-100.694-100.694c-55.612,0-100.694,45.083-100.694,100.694
	C131.944,288.251,177.027,333.334,232.639,333.334z"/>
</svg>
