<svg xmlns="http://www.w3.org/2000/svg" xmlns:xlink="http://www.w3.org/1999/xlink" width="100%" height="100%" viewBox="2 1 13 13">
<path fill="#FFF" d="M12.781,2.3H10.45c-0.359,0-0.65-0.291-0.65-0.65S10.091,1,10.45,1h3.899C14.709,1,15,1.291,15,1.65v3.9
	c0,0.359-0.291,0.65-0.65,0.65c-0.358,0-0.649-0.291-0.649-0.65V3.219L7.66,9.26c-0.254,0.254-0.666,0.254-0.919,0
	s-0.254-0.666,0-0.919L12.781,2.3z M11.75,8.15c0-0.359,0.291-0.65,0.65-0.65c0.358,0,0.649,0.291,0.649,0.65v3.9
	c0,1.077-0.873,1.95-1.95,1.95H3.95C2.873,14,2,13.127,2,12.05V4.9c0-1.077,0.873-1.95,1.95-1.95h3.9c0.359,0,0.65,0.291,0.65,0.65
	S8.209,4.25,7.85,4.25h-3.9C3.591,4.25,3.3,4.541,3.3,4.9v7.15c0,0.359,0.291,0.65,0.65,0.65H11.1c0.359,0,0.65-0.291,0.65-0.65
	V8.15z"/>
</svg>
